# xmcd
#
# Track frame offsets:
#	150
#	15890
#	44104
#	65935
#	85944
#	108968
#	134266
#	173653
#	213157
#	237535
#
# Disc length: 3595 seconds
#
# Revision: 1
# Processed by: cddbd v1.5.2PL0 Copyright (c) Steve Scherf et al.
# Submitted via: audiograbber 1.82.01
#
DISCID=870e090a
DTITLE=Eric Clapton - River Of Tears, Live In Buenos Aires - Disc 1
DYEAR=2001
DGENRE=Rock
TTITLE0=Key To The Highway
TTITLE1=Reptile
TTITLE2=Got You On My Mind
TTITLE3=Tears In Heaven
TTITLE4=Bell Bottom Blues
TTITLE5=Change The World
TTITLE6=My Fathers Eyes
TTITLE7=River Of Tears
TTITLE8=Going Down Slow
TTITLE9=She's Gone
EXTD=
EXTT0=
EXTT1=
EXTT2=
EXTT3=
EXTT4=
EXTT5=
EXTT6=
EXTT7=
EXTT8=
EXTT9=
PLAYORDER=
